# xmcd
#
# Track frame offsets:
#	150
#	14814
#	38985
#	61107
#	91828
#	111220
#	124853
#	149675
#	171994
#	192122
#	226501
#
# Disc length: 3327 seconds
#
# Revision: 0
# Processed by: cddbd v1.5.2PL0 Copyright (c) Steve Scherf et al.
# Submitted via: audiograbber 1.83.01
#
DISCID=930cfd0b
DTITLE=Jefferson Airplane - Collection [CD2)
DYEAR=1900
DGENRE=
TTITLE0=White Rabbit
TTITLE1=High Flyin' Bird
TTITLE2=Volunteers
TTITLE3=Other Side Of Life
TTITLE4=Don't Slip Away
TTITLE5=Living On The Farm
TTITLE6=Good Shepard
TTITLE7=This Is My Life
TTITLE8=She Has Funny Cars
TTITLE9=Reenlistment Blues
TTITLE10=Wont You Try - Saturday Afternoon
EXTD=
EXTT0=
EXTT1=
EXTT2=
EXTT3=
EXTT4=
EXTT5=
EXTT6=
EXTT7=
EXTT8=
EXTT9=
EXTT10=
PLAYORDER=
